<?xml version="1.0"?>
<svg xmlns="http://www.w3.org/2000/svg" xmlns:xlink="http://www.w3.org/1999/xlink" version="1.1" id="Capa_1" x="0px" y="0px" viewBox="0 0 481.529 481.529" style="enable-background:new 0 0 481.529 481.529;" xml:space="preserve" width="512px" height="512px" class="hovered-paths"><g><g>
	<path style="fill:#F1E200;" d="M124.764,473.529c-2.205,0-4.306-0.447-6.217-1.254   C120.459,473.087,122.561,473.529,124.764,473.529z" data-original="#F1E200"/>
	<path style="fill:#F1E200;" d="M110.018,463.746c-0.807-1.912-1.254-4.012-1.254-6.217   C108.764,459.732,109.206,461.834,110.018,463.746z" data-original="#F1E200"/>
</g><path style="fill:#FFB398;" d="M252.764,37.529c0-15.44-12.56-28-28-28h-100l-104,104v360h104c-2.203,0-4.305-0.442-6.217-1.254  c-3.836-1.619-6.91-4.692-8.529-8.529c-0.812-1.912-1.254-4.014-1.254-6.217c0-8.837,7.164-16,16-16h8v-64l-32,32l32-32v-48h64  c8.8,0,16.8-3.6,22.64-9.36c5.76-5.84,9.36-13.84,9.36-22.64c0-17.68-14.32-32-32-32h-64h-24l-32-32v-96l72-72h56h20  c7.68,0,14.72-3.12,19.76-8.24C249.644,52.249,252.764,45.209,252.764,37.529z" data-original="#FFB398" class=""/><g>
	<path style="fill:#F1E200;" d="M110.018,463.746c1.619,3.836,4.692,6.91,8.529,8.529c-1.907-0.81-3.625-1.988-5.063-3.466   C112.007,467.371,110.828,465.653,110.018,463.746z" data-original="#F1E200"/>
	<path style="fill:#F1E200;" d="M124.764,441.529c-8.836,0-16,7.163-16,16C108.764,448.729,115.965,441.529,124.764,441.529z" data-original="#F1E200"/>
</g><g>
	<path style="fill:#FFB398;" d="M283.804,272.569c-4.32,4.32-7.04,10.32-7.04,16.96c0,13.28,10.72,24,24,24h48   c6.64,0,12.64-2.72,16.96-7.04c4.32-4.32,7.04-10.32,7.04-16.96c0-13.28-10.72-24-24-24h-24h-24   C294.124,265.529,288.124,268.249,283.804,272.569z" data-original="#FFB398" class=""/>
	<path style="fill:#FFB398;" d="M283.804,320.569c-4.32,4.32-7.04,10.32-7.04,16.96c0,13.28,10.72,24,24,24h48   c6.64,0,12.64-2.72,16.96-7.04c4.32-4.32,7.04-10.32,7.04-16.96c0-13.28-10.72-24-24-24h-48   C294.124,313.529,288.124,316.249,283.804,320.569z" data-original="#FFB398" class=""/>
	<path style="fill:#FFB398;" d="M283.804,368.569c-4.32,4.32-7.04,10.32-7.04,16.96c0,13.28,10.72,24,24,24h24h24   c6.64,0,12.64-2.72,16.96-7.04c4.32-4.32,7.04-10.32,7.04-16.96c0-13.28-10.72-24-24-24h-48   C294.124,361.529,288.124,364.249,283.804,368.569z" data-original="#FFB398" class=""/>
</g><path style="fill:#08A8BB" d="M324.764,441.529v-32h-24c-13.28,0-24-10.72-24-24c0-6.64,2.72-12.64,7.04-16.96  c4.32-4.32,10.32-7.04,16.96-7.04c-13.28,0-24-10.72-24-24c0-6.64,2.72-12.64,7.04-16.96c4.32-4.32,10.32-7.04,16.96-7.04  c-13.28,0-24-10.72-24-24c0-6.64,2.72-12.64,7.04-16.96c4.32-4.32,10.32-7.04,16.96-7.04h24v-32h-96v64v144H324.764z" data-original="#84B323" class="hovered-path active-path" data-old_color="#84B323"/><g>
	<path style="fill:#08A8BB" d="M132.764,233.529v32h64c17.68,0,32,14.32,32,32v-64H132.764z" data-original="#A0D92A" class="" data-old_color="#A0D92A"/>
	<path style="fill:#08A8BB" d="M228.764,297.529c0,8.8-3.6,16.8-9.36,22.64c-5.84,5.76-13.84,9.36-22.64,9.36h-64v48v64h96V297.529   z" data-original="#A0D92A" class="" data-old_color="#A0D92A"/>
</g><path style="fill:#D0DFEA;" d="M228.764,233.529h96h8c4.4,0,8.4-1.76,11.28-4.72c2.96-2.88,4.72-6.88,4.72-11.28c0-8.8-7.2-16-16-16  h-13.52h-90.48V233.529z" data-original="#D0DFEA"/><g>
	<path style="fill:#FEFEFE;" d="M228.764,201.529h-90.48h-13.52c-4.4,0-8.4,1.76-11.28,4.72c-2.96,2.88-4.72,6.88-4.72,11.28   c0,8.8,7.2,16,16,16h8h96V201.529z" data-original="#FEFEFE"/>
	<path style="fill:#FEFEFE;" d="M132.764,441.529h-8c-8.8,0-16,7.2-16,16c0,2.205,0.447,4.306,1.254,6.217   c0.81,1.907,1.988,3.625,3.466,5.063c1.438,1.478,3.156,2.656,5.063,3.466c1.912,0.807,4.012,1.254,6.217,1.254h104v-32H132.764z" data-original="#FEFEFE"/>
</g><g>
	<path style="fill:#D0DFEA;" d="M332.764,441.529h-8h-96v32h104c8.836,0,16-7.164,16-16   C348.764,448.692,341.601,441.529,332.764,441.529z" data-original="#D0DFEA"/>
	<path style="fill:#D0DFEA;" d="M228.764,201.529h90.48c-8.88-25.12-27.92-45.52-52.24-56h-38.24V201.529z" data-original="#D0DFEA"/>
</g><path style="fill:#FEFEFE;" d="M228.764,145.529h-38.24c-24.32,10.48-43.36,30.88-52.24,56h90.48V145.529z" data-original="#FEFEFE"/><polygon style="fill:#B9C6D0;" points="252.764,113.529 252.764,81.529 252.764,65.529 228.764,65.529 228.764,113.529 " data-original="#B9C6D0"/><polygon style="fill:#D0DFEA;" points="228.764,65.529 224.764,65.529 204.764,65.529 204.764,113.529 228.764,113.529 " data-original="#D0DFEA"/><polygon style="fill:#97A2AA;" points="228.764,145.529 267.005,145.529 268.764,145.529 268.764,113.529 252.764,113.529   228.764,113.529 " data-original="#97A2AA"/><polygon style="fill:#AEBBC4;" points="228.764,113.529 204.764,113.529 188.764,113.529 188.764,145.529 190.524,145.529   228.764,145.529 " data-original="#AEBBC4"/><rect id="SVGCleanerId_0" x="289.741" y="106.266" transform="matrix(-0.2696 0.963 -0.963 -0.2696 487.436 -142.4446)" width="16" height="14.752" data-original="#000000" class="" style="fill:#000000"/><rect id="SVGCleanerId_1" x="403.371" y="138.122" transform="matrix(-0.2696 0.963 -0.963 -0.2696 662.3908 -211.4116)" width="16" height="14.752" data-original="#000000" class="" style="fill:#000000"/><rect id="SVGCleanerId_2" x="431.726" y="146.06" transform="matrix(-0.2696 0.963 -0.963 -0.2696 706.0344 -228.6387)" width="16" height="14.752" data-original="#000000" class="" style="fill:#000000"/><rect id="SVGCleanerId_3" x="346.559" y="122.188" transform="matrix(-0.2696 0.963 -0.963 -0.2696 574.9022 -176.9449)" width="16" height="14.752" data-original="#000000" class="" style="fill:#000000"/><rect id="SVGCleanerId_4" x="318.178" y="114.272" transform="matrix(-0.2696 0.963 -0.963 -0.2696 531.248 -159.6639)" width="16" height="14.752" data-original="#000000" class="" style="fill:#000000"/><rect id="SVGCleanerId_5" x="374.996" y="130.154" transform="matrix(-0.2696 0.963 -0.963 -0.2696 618.6757 -194.2151)" width="16" height="14.752" data-original="#000000" class="" style="fill:#000000"/><rect id="SVGCleanerId_6" x="375.554" y="17.561" transform="matrix(-0.963 0.2696 -0.2696 -0.963 758.5756 -53.0472)" width="14.752" height="16" data-original="#000000" class="" style="fill:#000000"/><rect id="SVGCleanerId_7" x="432.378" y="1.693" transform="matrix(-0.963 0.2696 -0.2696 -0.963 865.8372 -99.5354)" width="14.752" height="16" data-original="#000000" class="" style="fill:#000000"/><rect id="SVGCleanerId_8" x="347.187" y="25.531" transform="matrix(-0.963 0.2696 -0.2696 -0.963 705.0391 -29.7559)" width="14.752" height="16" data-original="#000000" class="" style="fill:#000000"/><rect id="SVGCleanerId_9" x="290.384" y="41.405" transform="matrix(-0.963 0.2696 -0.2696 -0.963 597.8164 16.7166)" width="14.752" height="16" data-original="#000000" class="" style="fill:#000000"/><rect id="SVGCleanerId_10" x="318.766" y="33.458" transform="matrix(-0.963 0.2696 -0.2696 -0.963 651.3876 -6.5332)" width="14.752" height="16" data-original="#000000" class="" style="fill:#000000"/><rect id="SVGCleanerId_11" x="403.98" y="9.612" transform="matrix(-0.963 0.2696 -0.2696 -0.963 812.2286 -76.3337)" width="14.752" height="16" data-original="#000000" class="" style="fill:#000000"/><path d="M380.764,289.529c0-17.645-14.352-32-32-32h-16v-16c6.484,0,12.523-2.535,16.859-6.988  c4.609-4.48,7.141-10.523,7.141-17.012c0-13.234-10.766-24-24-24h-8.182c-9.378-22.447-26.347-40.93-47.818-52.085v-27.915  c0-4.418-3.578-8-8-8h-8v-16h16v-16h-16v-8c0-3.835-2.752-6.889-6.355-7.668c4.111-5.916,6.355-12.928,6.355-20.332  c0-19.852-16.148-36-36-36h-100c-2.125,0-4.156,0.844-5.656,2.344l-104,104c-1.5,1.5-2.344,3.535-2.344,5.656v360  c0,4.418,3.578,8,8,8h104h208c13.234,0,24-10.766,24-24s-10.766-24-24-24v-16h16c8.531,0,16.57-3.332,22.617-9.383  c6.055-6.051,9.383-14.082,9.383-22.617c0-9.604-4.34-18.132-11.061-24.002c0.548-0.479,1.159-0.861,1.678-1.38  c6.055-6.051,9.383-14.082,9.383-22.617c0-9.604-4.34-18.132-11.061-24.002c0.548-0.479,1.159-0.861,1.678-1.38  C377.436,306.095,380.764,298.064,380.764,289.529z M340.764,217.529c0,2.137-0.82,4.105-2.445,5.695  c-1.453,1.488-3.422,2.305-5.555,2.305h-8h-192h-8c-4.414,0-8-3.59-8-8c0-2.137,0.82-4.105,2.453-5.699  c1.438-1.484,3.414-2.301,5.547-2.301h13.523h180.953h13.523C337.178,209.529,340.764,213.119,340.764,217.529z M124.764,257.529  h-12.688l-27.313-27.312v-89.375l67.312-67.313h44.688v32h-8c-4.422,0-8,3.582-8,8v27.915  c-21.472,11.155-38.44,29.638-47.818,52.085h-8.182c-6.492,0-12.531,2.535-16.859,6.988c-4.609,4.48-7.141,10.523-7.141,17.012  c0,13.234,10.766,24,24,24V257.529z M260.764,121.529v16h-64v-16h8h48H260.764z M307.116,193.529H150.413  c8.992-17.605,23.742-31.813,41.797-40h73.109C283.374,161.716,298.124,175.923,307.116,193.529z M212.764,105.529v-32h12h20v32  H212.764z M28.764,465.529V116.841l99.313-99.313h96.688c11.031,0,20,8.973,20,20c0,5.352-2.078,10.344-5.945,14.148  c-3.711,3.773-8.703,5.852-14.055,5.852h-20h-56c-2.125,0-4.156,0.844-5.656,2.344l-72,72c-1.5,1.5-2.344,3.535-2.344,5.656v96  c0,2.121,0.844,4.156,2.344,5.656l32,32c1.5,1.5,3.531,2.344,5.656,2.344h24h64c13.234,0,24,10.766,24,24  c0,6.363-2.508,12.41-6.977,16.941c-4.617,4.551-10.664,7.059-17.023,7.059h-64c-4.422,0-8,3.582-8,8v44.688l-29.656,29.656  c-1.563,1.563-2.344,3.609-2.344,5.656s0.781,4.094,2.344,5.656c3.125,3.125,8.188,3.125,11.313,0l18.344-18.344v36.688  c-13.234,0-24,10.766-24,24c0,1.548,0.178,3.06,0.459,4.541c0.076,0.393,0.202,0.762,0.296,1.148  c0.188,0.775,0.334,1.565,0.596,2.312H28.764z M340.764,457.529c0,4.41-3.586,8-8,8h-208c-1.085,0-2.117-0.227-3.061-0.62  c-0.955-0.408-1.844-1.017-2.642-1.83c-0.726-0.711-1.285-1.553-1.674-2.475c-0.396-0.948-0.623-1.985-0.623-3.076  c0-4.41,3.586-8,8-8h8h192h8C337.178,449.529,340.764,453.119,340.764,457.529z M316.764,433.529h-176v-96h56  c10.586,0,20.625-4.141,28.336-11.742c7.523-7.629,11.664-17.664,11.664-28.258c0-22.055-17.945-40-40-40h-56v-16h176v16h-16  c-8.531,0-16.57,3.332-22.617,9.383c-6.055,6.051-9.383,14.082-9.383,22.617c0,2.303,0.27,4.54,0.734,6.706  c0.154,0.721,0.445,1.38,0.647,2.083c0.406,1.409,0.811,2.813,1.398,4.135c0.348,0.782,0.808,1.487,1.215,2.235  c0.623,1.145,1.237,2.284,1.99,3.34c0.527,0.739,1.136,1.396,1.723,2.087c0.796,0.938,1.592,1.862,2.49,2.703  c0.235,0.221,0.413,0.497,0.655,0.71c-0.5,0.441-0.992,0.902-1.469,1.383c-6.055,6.051-9.383,14.082-9.383,22.617  c0,2.303,0.27,4.54,0.734,6.706c0.154,0.721,0.445,1.38,0.647,2.083c0.406,1.409,0.811,2.813,1.398,4.135  c0.348,0.782,0.808,1.487,1.215,2.235c0.623,1.145,1.237,2.284,1.99,3.34c0.527,0.739,1.136,1.396,1.723,2.087  c0.796,0.938,1.592,1.862,2.49,2.703c0.235,0.221,0.413,0.497,0.655,0.71c-0.5,0.441-0.992,0.902-1.469,1.383  c-6.055,6.051-9.383,14.082-9.383,22.617c0,17.645,14.352,32,32,32h16V433.529z M364.764,385.529c0,4.262-1.664,8.277-4.695,11.305  s-7.047,4.695-11.305,4.695h-24h-24c-8.82,0-16-7.176-16-16c0-4.262,1.664-8.277,4.695-11.305s7.047-4.695,11.305-4.695h48  C357.585,369.529,364.764,376.705,364.764,385.529z M364.764,337.529c0,4.262-1.664,8.277-4.695,11.305s-7.047,4.695-11.305,4.695  h-48c-8.82,0-16-7.176-16-16c0-4.262,1.664-8.277,4.695-11.305s7.047-4.695,11.305-4.695h48  C357.585,321.529,364.764,328.705,364.764,337.529z M300.764,305.529c-8.82,0-16-7.176-16-16c0-4.262,1.664-8.277,4.695-11.305  s7.047-4.695,11.305-4.695h24h24c8.82,0,16,7.176,16,16c0,4.262-1.664,8.277-4.695,11.305s-7.047,4.695-11.305,4.695H300.764z" data-original="#000000" class="" style="fill:#000000"/><rect x="292.764" y="73.529" width="16" height="16" data-original="#000000" class="" style="fill:#000000"/><rect x="324.764" y="73.529" width="16" height="16" data-original="#000000" class="" style="fill:#000000"/><rect x="356.764" y="73.529" width="16" height="16" data-original="#000000" class="" style="fill:#000000"/><rect x="388.764" y="73.529" width="16" height="16" data-original="#000000" class="" style="fill:#000000"/><rect x="420.764" y="73.529" width="16" height="16" data-original="#000000" class="" style="fill:#000000"/><rect x="452.764" y="73.529" width="16" height="16" data-original="#000000" class="" style="fill:#000000"/><g transform="matrix(1 0.00005 -0.00005 1 0 -0.002)">
	
		<rect id="SVGCleanerId_4_1_" x="318.171" y="114.274" transform="matrix(-0.2696 0.963 -0.963 -0.2696 531.255 -159.645)" width="16" height="14.752" data-original="#000000" class="" style="fill:#000000"/>
</g><g transform="matrix(1 0.00005 -0.00005 1 0 -0.003)">
	
		<rect id="SVGCleanerId_5_1_" x="374.988" y="130.151" transform="matrix(-0.2696 0.963 -0.963 -0.2696 618.6792 -194.2004)" width="16" height="14.752" data-original="#000000" class="" style="fill:#000000"/>
</g><g transform="matrix(1 0.00005 -0.00005 1 0 -0.003)">
	
		<rect id="SVGCleanerId_3_1_" x="346.552" y="122.183" transform="matrix(-0.2696 0.963 -0.963 -0.2696 574.9037 -176.9332)" width="16" height="14.752" data-original="#000000" class="" style="fill:#000000"/>
</g><g>
	
		<rect id="SVGCleanerId_2_1_" x="431.726" y="146.06" transform="matrix(-0.2696 0.963 -0.963 -0.2696 706.0344 -228.6387)" width="16" height="14.752" data-original="#000000" class="" style="fill:#000000"/>
</g><g>
	
		<rect id="SVGCleanerId_1_1_" x="403.371" y="138.122" transform="matrix(-0.2696 0.963 -0.963 -0.2696 662.3908 -211.4116)" width="16" height="14.752" data-original="#000000" class="" style="fill:#000000"/>
</g><g transform="matrix(1 -0.0002 0.0002 1 -0.003 0.008)">
	
		<rect id="SVGCleanerId_0_1_" x="289.743" y="106.265" transform="matrix(-0.2694 0.963 -0.963 -0.2694 487.3859 -142.4853)" width="16" height="14.752" data-original="#000000" class="" style="fill:#000000"/>
</g><g>
	
		<rect id="SVGCleanerId_6_1_" x="375.554" y="17.561" transform="matrix(-0.963 0.2696 -0.2696 -0.963 758.5756 -53.0472)" width="14.752" height="16" data-original="#000000" class="" style="fill:#000000"/>
</g><g>
	
		<rect id="SVGCleanerId_8_1_" x="347.187" y="25.531" transform="matrix(-0.963 0.2696 -0.2696 -0.963 705.0391 -29.7559)" width="14.752" height="16" data-original="#000000" class="" style="fill:#000000"/>
</g><g transform="matrix(1 0.00005 -0.00005 1 0 -0.003)">
	
		<rect id="SVGCleanerId_11_1_" x="403.979" y="9.61" transform="matrix(-0.963 0.2696 -0.2696 -0.963 812.2297 -76.3173)" width="14.752" height="16" data-original="#000000" class="" style="fill:#000000"/>
</g><g>
	
		<rect id="SVGCleanerId_10_1_" x="318.766" y="33.458" transform="matrix(-0.963 0.2696 -0.2696 -0.963 651.3876 -6.5332)" width="14.752" height="16" data-original="#000000" class="" style="fill:#000000"/>
</g><g transform="matrix(1 0.00005 -0.00005 1 0 -0.003)">
	
		<rect id="SVGCleanerId_7_1_" x="432.377" y="1.692" transform="matrix(-0.963 0.2696 -0.2696 -0.963 865.8401 -99.515)" width="14.752" height="16" data-original="#000000" class="" style="fill:#000000"/>
</g><g>
	
		<rect id="SVGCleanerId_9_1_" x="290.384" y="41.405" transform="matrix(-0.963 0.2696 -0.2696 -0.963 597.8164 16.7166)" width="14.752" height="16" data-original="#000000" class="" style="fill:#000000"/>
</g></g> </svg>
